HIERARCHY
ROOT Hips
{
	OFFSET 0.000000 0.000000 0.000000
	CHANNELS 6 Xposition Yposition Zposition Xrotation Yrotation Zrotation
	JOINT LeftUpLeg_virtual
	{
		OFFSET 0.000000 0.000000 0.000000
		CHANNELS 3 Xrotation Yrotation Zrotation
		JOINT LeftUpLeg
		{
			OFFSET 15.427100 -6.655098 0.678600
			CHANNELS 3 Xrotation Yrotation Zrotation
			JOINT LeftLeg
			{
				OFFSET 4.081073 -39.591068 13.024000
				CHANNELS 3 Xrotation Yrotation Zrotation
				JOINT LeftFoot
				{
					OFFSET -4.081074 -37.707932 -15.979700
					CHANNELS 3 Xrotation Yrotation Zrotation
					JOINT LeftToeBase
					{
						OFFSET 5.346399 -15.068900 20.645000
						CHANNELS 3 Xrotation Yrotation Zrotation
						JOINT LeftToe_End
						{
							OFFSET 2.754700 0.931300 11.300900
							CHANNELS 3 Xrotation Yrotation Zrotation
							End Site
							{
								OFFSET 0 0 0
							}
						}
					}
				}
			}
		}
	}
	JOINT RightUpLeg_virtual
	{
		OFFSET 0.000000 0.000000 0.000000
		CHANNELS 3 Xrotation Yrotation Zrotation
		JOINT RightUpLeg
		{
			OFFSET -15.569500 -6.655098 0.678600
			CHANNELS 3 Xrotation Yrotation Zrotation
			JOINT RightLeg
			{
				OFFSET -4.081825 -39.591045 13.023800
				CHANNELS 3 Xrotation Yrotation Zrotation
				JOINT RightFoot
				{
					OFFSET 4.081824 -37.707954 -15.979600
					CHANNELS 3 Xrotation Yrotation Zrotation
					JOINT RightToeBase
					{
						OFFSET -5.346400 -15.068900 20.645000
						CHANNELS 3 Xrotation Yrotation Zrotation
						JOINT RightToe_End
						{
							OFFSET -2.754700 0.931300 11.300900
							CHANNELS 3 Xrotation Yrotation Zrotation
							End Site
							{
								OFFSET 0 0 0
							}
						}
					}
				}
			}
		}
	}
	JOINT Spine_virtual
	{
		OFFSET 0.000000 0.000000 0.000000
		CHANNELS 3 Xrotation Yrotation Zrotation
		JOINT Spine
		{
			OFFSET -0.279200 12.230698 -2.892100
			CHANNELS 3 Xrotation Yrotation Zrotation
			JOINT Spine1
			{
				OFFSET -0.232667 10.192268 -1.242267
				CHANNELS 3 Xrotation Yrotation Zrotation
				JOINT Spine1_split
				{
					OFFSET -0.232667 10.192268 -1.242267
					CHANNELS 3 Xrotation Yrotation Zrotation
					JOINT Spine2
					{
						OFFSET -0.232667 10.192268 -1.242267
						CHANNELS 3 Xrotation Yrotation Zrotation
						JOINT Neck_virtual
						{
							OFFSET 0.000000 0.000000 0.000000
							CHANNELS 3 Xrotation Yrotation Zrotation
							JOINT Neck
							{
								OFFSET -0.418800 17.814194 8.416900
								CHANNELS 3 Xrotation Yrotation Zrotation
								JOINT Head
								{
									OFFSET 0.000000 7.031097 3.806800
									CHANNELS 3 Xrotation Yrotation Zrotation
									JOINT HeadTop_End
									{
										OFFSET 0.000000 24.646606 12.978600
										CHANNELS 3 Xrotation Yrotation Zrotation
										End Site
										{
											OFFSET 0 0 0
										}
									}
								}
							}
						}
						JOINT LeftShoulder_virtual
						{
							OFFSET 0.000000 0.000000 0.000000
							CHANNELS 3 Xrotation Yrotation Zrotation
							JOINT LeftShoulder
							{
								OFFSET 8.476499 7.247704 -3.868750
								CHANNELS 3 Xrotation Yrotation Zrotation
								JOINT LeftShoulder_split
								{
									OFFSET 8.476499 7.247704 -3.868750
									CHANNELS 3 Xrotation Yrotation Zrotation
									JOINT LeftArm
									{
										OFFSET 9.308998 -2.777710 0.208600
										CHANNELS 3 Xrotation Yrotation Zrotation
										JOINT LeftForeArm
										{
											OFFSET 29.972298 0.000000 0.000000
											CHANNELS 3 Xrotation Yrotation Zrotation
											JOINT LeftHand
											{
												OFFSET 26.026505 0.000000 0.000000
												CHANNELS 3 Xrotation Yrotation Zrotation
												End Site
												{
													OFFSET 0 0 0
												}
											}
										}
									}
								}
							}
						}
						JOINT RightShoulder_virtual
						{
							OFFSET 0.000000 0.000000 0.000000
							CHANNELS 3 Xrotation Yrotation Zrotation
							JOINT RightShoulder
							{
								OFFSET -7.570500 7.247704 -3.868750
								CHANNELS 3 Xrotation Yrotation Zrotation
								JOINT RightShoulder_split
								{
									OFFSET -7.570500 7.247704 -3.868750
									CHANNELS 3 Xrotation Yrotation Zrotation
									JOINT RightArm
									{
										OFFSET -9.308998 -2.777710 0.208500
										CHANNELS 3 Xrotation Yrotation Zrotation
										JOINT RightForeArm
										{
											OFFSET -29.972300 0.000000 0.000000
											CHANNELS 3 Xrotation Yrotation Zrotation
											JOINT RightHand
											{
												OFFSET -26.026505 0.000000 0.000000
												CHANNELS 3 Xrotation Yrotation Zrotation
												End Site
												{
													OFFSET 0 0 0
												}
											}
										}
									}
								}
							}
						}
					}
				}
			}
		}
	}
}
MOTION
Frames: 8
Frame Time: 0.03333333
-2.040869 90.201225 2.489525 0.000000 0.000000 0.000000 -7.655695 6.935658 -0.545438 -11.962797 13.594108 15.663427 23.126390 1.330098 5.524741 -4.741086 -12.137109 -12.167175 -2.111807 0.506806 -1.274567 0.000000 0.000000 0.000000 -7.874622 9.232278 -0.450751 5.720343 -8.372422 4.887263 18.809690 -7.996785 -9.981315 -14.135359 -16.052920 4.900081 -7.087506 0.003611 -0.289263 0.000000 0.000000 0.000000 -7.329639 6.581105 -1.020501 2.736630 0.666084 4.563857 2.273695 0.473262 2.891726 0.840532 -1.499427 -0.075723 0.000000 0.000000 0.000000 1.637130 0.751955 2.865169 12.409237 -0.781749 -1.360455 3.177623 -10.394090 -7.737214 0.000000 0.000000 0.000000 1.433484 0.775773 2.680235 2.154325 -14.459833 -11.897578 -0.589674 0.219162 -2.513314 4.171034 -3.343414 -69.891734 -1.734476 -1.154987 -0.304006 0.000000 0.000000 0.000000 1.430583 0.558542 2.896698 1.914776 8.790564 18.940403 1.216628 4.168200 -2.054413 24.971141 7.002768 59.021024 0.826334 7.006567 0.640672 0.000000 0.000000 0.000000 
-1.927564 90.435654 2.513741 0.000000 0.000000 0.000000 -7.287810 6.330934 -0.610062 -11.872567 13.948593 15.377766 22.464899 1.037414 5.365823 -4.633914 -11.205212 -11.980769 -1.966150 0.480007 -1.312766 0.000000 0.000000 0.000000 -7.522054 8.495854 -0.543743 5.391686 -8.461227 4.718518 18.383121 -7.890008 -9.912553 -13.663013 -15.273362 5.037968 -7.151110 0.040265 -0.276249 0.000000 0.000000 0.000000 -6.861671 6.119884 -1.071157 2.660989 0.551149 4.562956 2.355984 0.341247 2.877802 0.867532 -1.511730 -0.078731 0.000000 0.000000 0.000000 1.759259 0.580096 2.850763 12.205655 -0.534905 -1.253597 2.337449 -9.274313 -7.142553 0.000000 0.000000 0.000000 1.464760 0.601782 2.630046 2.158589 -14.669435 -12.206087 -0.652414 0.352677 -2.293206 4.544066 -2.265083 -70.111537 -1.649366 -0.921219 -0.202955 0.000000 0.000000 0.000000 1.540250 0.394710 2.904358 1.985695 8.111156 18.730301 0.894284 4.019945 -2.165148 26.979908 7.093396 58.162742 0.828635 6.867296 0.555723 0.000000 0.000000 0.000000 
-1.832082 90.667885 2.504101 0.000000 0.000000 0.000000 -6.912724 5.479612 -0.755996 -11.742181 14.238585 15.191596 21.801025 0.798612 5.171919 -4.620574 -10.021313 -11.792328 -1.820428 0.454804 -1.367987 0.000000 0.000000 0.000000 -7.147523 7.556907 -0.713055 5.063970 -8.600342 4.576468 17.921549 -7.779387 -9.751790 -13.242142 -14.230101 5.096645 -7.165059 0.082928 -0.245358 0.000000 0.000000 0.000000 -6.385274 5.438329 -1.198367 2.613529 0.466722 4.571109 2.460615 0.234354 2.880453 0.903334 -1.369613 -0.067472 0.000000 0.000000 0.000000 1.874144 0.425097 2.860655 11.935073 -0.275503 -1.130969 1.513183 -8.060599 -6.543504 0.000000 0.000000 0.000000 1.501083 0.452790 2.589444 2.166497 -14.828641 -12.448732 -0.797547 0.557889 -2.098750 4.910697 -1.414301 -70.420719 -1.593179 -0.680564 -0.142939 0.000000 0.000000 0.000000 1.652400 0.259565 2.923362 2.025798 7.703961 18.582578 0.547745 3.807560 -2.167197 27.558205 6.508260 57.610310 0.720371 6.263324 0.561318 0.000000 0.000000 0.000000 
-1.762515 90.885956 2.451889 0.000000 0.000000 0.000000 -6.537162 4.473012 -0.970174 -11.603746 14.425856 15.093313 21.166529 0.589918 4.957656 -4.678675 -8.648998 -11.612671 -1.711889 0.431958 -1.434663 0.000000 0.000000 0.000000 -6.761505 6.491979 -0.944247 4.747565 -8.780813 4.469598 17.421746 -7.693519 -9.503176 -12.855546 -12.983694 5.068166 -7.119385 0.121852 -0.200038 0.000000 0.000000 0.000000 -5.925901 4.562961 -1.399928 2.585058 0.412359 4.584194 2.584379 0.152177 2.893842 0.921258 -1.159736 -0.046358 0.000000 0.000000 0.000000 1.980791 0.301105 2.886620 11.581139 -0.011128 -0.985975 0.703580 -6.774256 -5.941620 0.000000 0.000000 0.000000 1.547989 0.335861 2.561115 2.186268 -14.933355 -12.583845 -0.992646 0.703995 -1.925103 5.329603 -0.959313 -70.759749 -1.569899 -0.528361 -0.139980 0.000000 0.000000 0.000000 1.748831 0.163529 2.950964 2.028047 7.567693 18.538308 0.346530 3.569190 -2.121883 26.769200 5.533578 57.350558 0.588301 5.417836 0.621841 0.000000 0.000000 0.000000 
-1.718850 91.096550 2.363594 0.000000 0.000000 0.000000 -6.166466 3.383749 -1.225646 -11.464332 14.518388 15.063641 20.567993 0.378262 4.730294 -4.751285 -7.189495 -11.470648 -1.655304 0.411122 -1.491328 0.000000 0.000000 0.000000 -6.375314 5.331081 -1.211638 4.427534 -8.985069 4.391651 16.878343 -7.630447 -9.175306 -12.466466 -11.608521 5.007947 -7.086875 0.147990 -0.147385 0.000000 0.000000 0.000000 -5.511654 3.549433 -1.654374 2.569034 0.379720 4.594069 2.720573 0.086859 2.907707 0.920764 -0.979509 -0.046856 0.000000 0.000000 0.000000 2.080413 0.211944 2.913542 11.177747 0.244675 -0.809159 -0.069246 -5.462349 -5.335056 0.000000 0.000000 0.000000 1.613093 0.252073 2.544886 2.227659 -14.972905 -12.597406 -1.212637 0.721372 -1.794813 5.800922 -0.947071 -71.079422 -1.592325 -0.544001 -0.187259 0.000000 0.000000 0.000000 1.836408 0.101157 2.970128 1.989937 7.612728 18.547285 0.382511 3.380413 -2.058044 25.028376 4.630648 57.214405 0.476529 4.787652 0.693782 0.000000 0.000000 0.000000 
-1.695636 91.303032 2.243351 0.000000 0.000000 0.000000 -5.800950 2.282326 -1.489107 -11.334584 14.533917 15.073891 20.000027 0.148114 4.484738 -4.770295 -5.734594 -11.379542 -1.613159 0.388655 -1.532772 0.000000 0.000000 0.000000 -6.002308 4.140624 -1.489482 4.135411 -9.197084 4.324511 16.278042 -7.595234 -8.790409 -12.032953 -10.173504 4.947811 -7.102197 0.158783 -0.095209 0.000000 0.000000 0.000000 -5.148990 2.468678 -1.925431 2.557776 0.358084 4.596672 2.858456 0.026837 2.913080 0.875666 -0.900389 -0.038444 0.000000 0.000000 0.000000 2.175149 0.150787 2.924671 10.773954 0.489340 -0.611372 -0.793326 -4.161848 -4.716690 0.000000 0.000000 0.000000 1.701779 0.192492 2.535467 2.287498 -14.968021 -12.504139 -1.434060 0.642334 -1.719747 6.267983 -1.324686 -71.343191 -1.644641 -0.700341 -0.262153 0.000000 0.000000 0.000000 1.916488 0.063207 2.968371 1.923072 7.792694 18.547654 0.659129 3.313029 -2.045652 22.857332 4.348877 57.037602 0.426544 4.722475 0.730277 0.000000 0.000000 0.000000 
-1.681936 91.515167 2.108822 0.000000 0.000000 0.000000 -5.449503 1.227827 -1.738008 -11.210510 14.520453 15.095294 19.431625 -0.094518 4.224714 -4.704684 -4.347340 -11.329309 -1.553184 0.365059 -1.555907 0.000000 0.000000 0.000000 -5.648424 2.979677 -1.752145 3.895403 -9.385366 4.265293 15.630591 -7.593112 -8.380556 -11.585887 -8.758502 4.852621 -7.078459 0.157278 -0.048647 0.000000 0.000000 0.000000 -4.834980 1.393379 -2.189281 2.546582 0.335859 4.586589 2.982272 -0.033826 2.905331 0.856172 -0.939312 -0.045725 0.000000 0.000000 0.000000 2.267590 0.109453 2.910446 10.414386 0.719687 -0.402339 -1.451205 -2.913799 -4.087679 0.000000 0.000000 0.000000 1.808079 0.143584 2.522965 2.356183 -14.955780 -12.350133 -1.607054 0.514887 -1.671433 6.654181 -2.009526 -71.530679 -1.712151 -0.936630 -0.338613 0.000000 0.000000 0.000000 1.999184 0.036666 2.949865 1.846116 8.068438 18.491972 0.984800 3.258542 -2.035789 20.668596 5.054692 56.777973 0.453662 5.210395 0.717732 0.000000 0.000000 0.000000 
-1.668133 91.739525 1.972546 0.000000 0.000000 0.000000 -5.114747 0.250255 -1.963958 -11.077725 14.526318 15.109895 18.827051 -0.314327 3.958036 -4.572071 -3.064412 -11.289870 -1.446347 0.340733 -1.568137 0.000000 0.000000 0.000000 -5.319341 1.887701 -1.994328 3.717683 -9.535637 4.206276 14.929125 -7.634123 -7.964478 -11.137435 -7.423540 4.704551 -6.971960 0.150263 -0.008353 0.000000 0.000000 0.000000 -4.555909 0.376810 -2.426443 2.534751 0.313550 4.566508 3.089171 -0.093483 2.886506 0.895625 -1.016457 -0.044995 0.000000 0.000000 0.000000 2.348003 0.078107 2.872283 10.122856 0.928746 -0.201130 -2.041688 -1.747157 -3.463702 0.000000 0.000000 0.000000 1.926806 0.098949 2.504939 2.422992 -14.954918 -12.199757 -1.743918 0.400765 -1.675779 6.884050 -2.918697 -71.636165 -1.776741 -1.106874 -0.391010 0.000000 0.000000 0.000000 2.093438 0.014156 2.916200 1.773224 8.416227 18.352662 1.237817 3.234531 -2.001276 18.758846 6.677475 56.515167 0.503516 6.137563 0.651635 0.000000 0.000000 0.000000 
